<mxfile host="Electron" modified="2023-11-13T19:58:32.415Z" agent="Mozilla/5.0 (X11; Linux x86_64) AppleWebKit/537.36 (KHTML, like Gecko) draw.io/22.0.3 Chrome/114.0.5735.289 Electron/25.8.4 Safari/537.36" etag="tOAHzoOOKNxkR2xhE2x6" version="22.0.3" type="device">
  <diagram name="Pagina-1" id="JRp5xNCqxEtz5N-wU-mI">
    <mxGraphModel dx="819" dy="482" grid="1" gridSize="10" guides="1" tooltips="1" connect="1" arrows="1" fold="1" page="1" pageScale="1" pageWidth="827" pageHeight="1169" math="0" shadow="0">
      <root>
        <mxCell id="0" />
        <mxCell id="1" parent="0" />
        <mxCell id="AJvE4rrnE6klCy9e74Wm-1" value="" style="rounded=0;whiteSpace=wrap;html=1;" vertex="1" parent="1">
          <mxGeometry x="100" y="120" width="120" height="160" as="geometry" />
        </mxCell>
        <mxCell id="AJvE4rrnE6klCy9e74Wm-2" value="Lecturer" style="text;html=1;strokeColor=none;fillColor=none;align=center;verticalAlign=middle;whiteSpace=wrap;rounded=0;" vertex="1" parent="1">
          <mxGeometry x="90" y="280" width="60" height="30" as="geometry" />
        </mxCell>
        <mxCell id="AJvE4rrnE6klCy9e74Wm-3" value="" style="rounded=0;whiteSpace=wrap;html=1;" vertex="1" parent="1">
          <mxGeometry x="100" y="120" width="120" height="110" as="geometry" />
        </mxCell>
        <mxCell id="AJvE4rrnE6klCy9e74Wm-4" value="Employee" style="text;html=1;strokeColor=none;fillColor=none;align=center;verticalAlign=middle;whiteSpace=wrap;rounded=0;" vertex="1" parent="1">
          <mxGeometry x="100" y="120" width="60" height="30" as="geometry" />
        </mxCell>
        <mxCell id="AJvE4rrnE6klCy9e74Wm-6" value="std::string name" style="text;html=1;strokeColor=none;fillColor=none;align=left;verticalAlign=middle;whiteSpace=wrap;rounded=0;" vertex="1" parent="1">
          <mxGeometry x="100" y="150" width="120" height="30" as="geometry" />
        </mxCell>
        <mxCell id="AJvE4rrnE6klCy9e74Wm-7" value="int nr" style="text;html=1;strokeColor=none;fillColor=none;align=left;verticalAlign=middle;whiteSpace=wrap;rounded=0;" vertex="1" parent="1">
          <mxGeometry x="100" y="172" width="60" height="30" as="geometry" />
        </mxCell>
        <mxCell id="AJvE4rrnE6klCy9e74Wm-8" value="std::string institute" style="text;html=1;strokeColor=none;fillColor=none;align=center;verticalAlign=middle;whiteSpace=wrap;rounded=0;" vertex="1" parent="1">
          <mxGeometry x="100" y="196" width="100" height="30" as="geometry" />
        </mxCell>
        <mxCell id="AJvE4rrnE6klCy9e74Wm-9" value="std::string studies" style="text;html=1;strokeColor=none;fillColor=none;align=left;verticalAlign=middle;whiteSpace=wrap;rounded=0;" vertex="1" parent="1">
          <mxGeometry x="100" y="227" width="120" height="30" as="geometry" />
        </mxCell>
        <mxCell id="AJvE4rrnE6klCy9e74Wm-11" value="std::string course" style="text;html=1;strokeColor=none;fillColor=none;align=left;verticalAlign=middle;whiteSpace=wrap;rounded=0;" vertex="1" parent="1">
          <mxGeometry x="100" y="250" width="120" height="30" as="geometry" />
        </mxCell>
        <mxCell id="AJvE4rrnE6klCy9e74Wm-12" value="" style="rounded=0;whiteSpace=wrap;html=1;" vertex="1" parent="1">
          <mxGeometry x="260" y="120" width="120" height="130" as="geometry" />
        </mxCell>
        <mxCell id="AJvE4rrnE6klCy9e74Wm-13" value="Researcher" style="text;html=1;strokeColor=none;fillColor=none;align=center;verticalAlign=middle;whiteSpace=wrap;rounded=0;" vertex="1" parent="1">
          <mxGeometry x="260" y="250" width="60" height="30" as="geometry" />
        </mxCell>
        <mxCell id="AJvE4rrnE6klCy9e74Wm-14" value="" style="rounded=0;whiteSpace=wrap;html=1;" vertex="1" parent="1">
          <mxGeometry x="260" y="120" width="120" height="110" as="geometry" />
        </mxCell>
        <mxCell id="AJvE4rrnE6klCy9e74Wm-15" value="Employee" style="text;html=1;strokeColor=none;fillColor=none;align=center;verticalAlign=middle;whiteSpace=wrap;rounded=0;" vertex="1" parent="1">
          <mxGeometry x="260" y="120" width="60" height="30" as="geometry" />
        </mxCell>
        <mxCell id="AJvE4rrnE6klCy9e74Wm-16" value="std::string name" style="text;html=1;strokeColor=none;fillColor=none;align=left;verticalAlign=middle;whiteSpace=wrap;rounded=0;" vertex="1" parent="1">
          <mxGeometry x="260" y="150" width="120" height="30" as="geometry" />
        </mxCell>
        <mxCell id="AJvE4rrnE6klCy9e74Wm-17" value="int nr" style="text;html=1;strokeColor=none;fillColor=none;align=left;verticalAlign=middle;whiteSpace=wrap;rounded=0;" vertex="1" parent="1">
          <mxGeometry x="260" y="172" width="60" height="30" as="geometry" />
        </mxCell>
        <mxCell id="AJvE4rrnE6klCy9e74Wm-18" value="std::string institute" style="text;html=1;strokeColor=none;fillColor=none;align=center;verticalAlign=middle;whiteSpace=wrap;rounded=0;" vertex="1" parent="1">
          <mxGeometry x="260" y="196" width="100" height="30" as="geometry" />
        </mxCell>
        <mxCell id="AJvE4rrnE6klCy9e74Wm-19" value="std::string area" style="text;html=1;strokeColor=none;fillColor=none;align=left;verticalAlign=middle;whiteSpace=wrap;rounded=0;" vertex="1" parent="1">
          <mxGeometry x="260" y="227" width="120" height="30" as="geometry" />
        </mxCell>
        <mxCell id="AJvE4rrnE6klCy9e74Wm-21" value="" style="endArrow=classic;html=1;rounded=0;entryX=0;entryY=0;entryDx=0;entryDy=0;" edge="1" parent="1" target="AJvE4rrnE6klCy9e74Wm-15">
          <mxGeometry width="50" height="50" relative="1" as="geometry">
            <mxPoint x="230" y="110" as="sourcePoint" />
            <mxPoint x="290" y="200" as="targetPoint" />
          </mxGeometry>
        </mxCell>
        <mxCell id="AJvE4rrnE6klCy9e74Wm-22" value="" style="endArrow=classic;html=1;rounded=0;entryX=0;entryY=0;entryDx=0;entryDy=0;" edge="1" parent="1">
          <mxGeometry width="50" height="50" relative="1" as="geometry">
            <mxPoint x="70" y="110" as="sourcePoint" />
            <mxPoint x="100" y="120" as="targetPoint" />
          </mxGeometry>
        </mxCell>
        <mxCell id="AJvE4rrnE6klCy9e74Wm-24" value="" style="rounded=0;whiteSpace=wrap;html=1;" vertex="1" parent="1">
          <mxGeometry x="400" y="120" width="120" height="320" as="geometry" />
        </mxCell>
        <mxCell id="AJvE4rrnE6klCy9e74Wm-26" value="" style="rounded=0;whiteSpace=wrap;html=1;" vertex="1" parent="1">
          <mxGeometry x="400" y="120" width="120" height="160" as="geometry" />
        </mxCell>
        <mxCell id="AJvE4rrnE6klCy9e74Wm-27" value="" style="rounded=0;whiteSpace=wrap;html=1;" vertex="1" parent="1">
          <mxGeometry x="400" y="120" width="120" height="110" as="geometry" />
        </mxCell>
        <mxCell id="AJvE4rrnE6klCy9e74Wm-28" value="Employee" style="text;html=1;strokeColor=none;fillColor=none;align=center;verticalAlign=middle;whiteSpace=wrap;rounded=0;" vertex="1" parent="1">
          <mxGeometry x="400" y="120" width="60" height="30" as="geometry" />
        </mxCell>
        <mxCell id="AJvE4rrnE6klCy9e74Wm-29" value="std::string name" style="text;html=1;strokeColor=none;fillColor=none;align=left;verticalAlign=middle;whiteSpace=wrap;rounded=0;" vertex="1" parent="1">
          <mxGeometry x="400" y="150" width="120" height="30" as="geometry" />
        </mxCell>
        <mxCell id="AJvE4rrnE6klCy9e74Wm-30" value="int nr" style="text;html=1;strokeColor=none;fillColor=none;align=left;verticalAlign=middle;whiteSpace=wrap;rounded=0;" vertex="1" parent="1">
          <mxGeometry x="400" y="172" width="60" height="30" as="geometry" />
        </mxCell>
        <mxCell id="AJvE4rrnE6klCy9e74Wm-31" value="std::string institute" style="text;html=1;strokeColor=none;fillColor=none;align=center;verticalAlign=middle;whiteSpace=wrap;rounded=0;" vertex="1" parent="1">
          <mxGeometry x="400" y="196" width="100" height="30" as="geometry" />
        </mxCell>
        <mxCell id="AJvE4rrnE6klCy9e74Wm-32" value="std::string studies" style="text;html=1;strokeColor=none;fillColor=none;align=left;verticalAlign=middle;whiteSpace=wrap;rounded=0;" vertex="1" parent="1">
          <mxGeometry x="400" y="227" width="120" height="30" as="geometry" />
        </mxCell>
        <mxCell id="AJvE4rrnE6klCy9e74Wm-33" value="std::string course" style="text;html=1;strokeColor=none;fillColor=none;align=left;verticalAlign=middle;whiteSpace=wrap;rounded=0;" vertex="1" parent="1">
          <mxGeometry x="400" y="250" width="120" height="30" as="geometry" />
        </mxCell>
        <mxCell id="AJvE4rrnE6klCy9e74Wm-34" value="" style="rounded=0;whiteSpace=wrap;html=1;" vertex="1" parent="1">
          <mxGeometry x="400" y="280" width="120" height="130" as="geometry" />
        </mxCell>
        <mxCell id="AJvE4rrnE6klCy9e74Wm-35" value="" style="rounded=0;whiteSpace=wrap;html=1;" vertex="1" parent="1">
          <mxGeometry x="400" y="280" width="120" height="110" as="geometry" />
        </mxCell>
        <mxCell id="AJvE4rrnE6klCy9e74Wm-36" value="Employee" style="text;html=1;strokeColor=none;fillColor=none;align=center;verticalAlign=middle;whiteSpace=wrap;rounded=0;" vertex="1" parent="1">
          <mxGeometry x="400" y="280" width="60" height="30" as="geometry" />
        </mxCell>
        <mxCell id="AJvE4rrnE6klCy9e74Wm-37" value="std::string name" style="text;html=1;strokeColor=none;fillColor=none;align=left;verticalAlign=middle;whiteSpace=wrap;rounded=0;" vertex="1" parent="1">
          <mxGeometry x="400" y="310" width="120" height="30" as="geometry" />
        </mxCell>
        <mxCell id="AJvE4rrnE6klCy9e74Wm-38" value="int nr" style="text;html=1;strokeColor=none;fillColor=none;align=left;verticalAlign=middle;whiteSpace=wrap;rounded=0;" vertex="1" parent="1">
          <mxGeometry x="400" y="332" width="60" height="30" as="geometry" />
        </mxCell>
        <mxCell id="AJvE4rrnE6klCy9e74Wm-39" value="std::string institute" style="text;html=1;strokeColor=none;fillColor=none;align=center;verticalAlign=middle;whiteSpace=wrap;rounded=0;" vertex="1" parent="1">
          <mxGeometry x="400" y="356" width="100" height="30" as="geometry" />
        </mxCell>
        <mxCell id="AJvE4rrnE6klCy9e74Wm-40" value="std::string area" style="text;html=1;strokeColor=none;fillColor=none;align=left;verticalAlign=middle;whiteSpace=wrap;rounded=0;" vertex="1" parent="1">
          <mxGeometry x="400" y="386" width="120" height="30" as="geometry" />
        </mxCell>
        <mxCell id="AJvE4rrnE6klCy9e74Wm-41" value="double perc" style="text;html=1;strokeColor=none;fillColor=none;align=left;verticalAlign=middle;whiteSpace=wrap;rounded=0;" vertex="1" parent="1">
          <mxGeometry x="400" y="410" width="100" height="30" as="geometry" />
        </mxCell>
        <mxCell id="AJvE4rrnE6klCy9e74Wm-42" value="LecturerResearcher" style="text;html=1;strokeColor=none;fillColor=none;align=center;verticalAlign=middle;whiteSpace=wrap;rounded=0;" vertex="1" parent="1">
          <mxGeometry x="420" y="440" width="60" height="30" as="geometry" />
        </mxCell>
        <mxCell id="AJvE4rrnE6klCy9e74Wm-43" value="Lecturer" style="text;html=1;strokeColor=none;fillColor=none;align=center;verticalAlign=middle;whiteSpace=wrap;rounded=0;" vertex="1" parent="1">
          <mxGeometry x="520" y="172" width="60" height="30" as="geometry" />
        </mxCell>
        <mxCell id="AJvE4rrnE6klCy9e74Wm-44" value="Researcher" style="text;html=1;strokeColor=none;fillColor=none;align=center;verticalAlign=middle;whiteSpace=wrap;rounded=0;" vertex="1" parent="1">
          <mxGeometry x="530" y="320" width="60" height="30" as="geometry" />
        </mxCell>
        <mxCell id="AJvE4rrnE6klCy9e74Wm-46" value="Employee" style="rounded=0;whiteSpace=wrap;html=1;" vertex="1" parent="1">
          <mxGeometry x="140" y="460" width="120" height="60" as="geometry" />
        </mxCell>
        <mxCell id="AJvE4rrnE6klCy9e74Wm-47" value="Researcher" style="rounded=0;whiteSpace=wrap;html=1;" vertex="1" parent="1">
          <mxGeometry x="270" y="570" width="120" height="60" as="geometry" />
        </mxCell>
        <mxCell id="AJvE4rrnE6klCy9e74Wm-48" value="Lecturer" style="rounded=0;whiteSpace=wrap;html=1;" vertex="1" parent="1">
          <mxGeometry x="10" y="570" width="120" height="60" as="geometry" />
        </mxCell>
        <mxCell id="AJvE4rrnE6klCy9e74Wm-49" value="LecturerResearcher" style="rounded=0;whiteSpace=wrap;html=1;" vertex="1" parent="1">
          <mxGeometry x="140" y="710" width="120" height="60" as="geometry" />
        </mxCell>
        <mxCell id="AJvE4rrnE6klCy9e74Wm-50" value="" style="endArrow=block;html=1;rounded=0;align=center;verticalAlign=bottom;endFill=0;labelBackgroundColor=none;endSize=8;entryX=0.25;entryY=1;entryDx=0;entryDy=0;exitX=0.5;exitY=0;exitDx=0;exitDy=0;" edge="1" parent="1" source="AJvE4rrnE6klCy9e74Wm-48" target="AJvE4rrnE6klCy9e74Wm-46">
          <mxGeometry relative="1" as="geometry">
            <mxPoint x="200" y="610" as="sourcePoint" />
            <mxPoint x="360" y="610" as="targetPoint" />
          </mxGeometry>
        </mxCell>
        <mxCell id="AJvE4rrnE6klCy9e74Wm-51" value="" style="resizable=0;html=1;align=center;verticalAlign=top;labelBackgroundColor=none;" connectable="0" vertex="1" parent="AJvE4rrnE6klCy9e74Wm-50">
          <mxGeometry relative="1" as="geometry" />
        </mxCell>
        <mxCell id="AJvE4rrnE6klCy9e74Wm-52" value="" style="endArrow=block;html=1;rounded=0;align=center;verticalAlign=bottom;endFill=0;labelBackgroundColor=none;endSize=8;entryX=0.75;entryY=1;entryDx=0;entryDy=0;exitX=0.5;exitY=0;exitDx=0;exitDy=0;" edge="1" parent="1" source="AJvE4rrnE6klCy9e74Wm-47" target="AJvE4rrnE6klCy9e74Wm-46">
          <mxGeometry relative="1" as="geometry">
            <mxPoint x="80" y="580" as="sourcePoint" />
            <mxPoint x="180" y="530" as="targetPoint" />
          </mxGeometry>
        </mxCell>
        <mxCell id="AJvE4rrnE6klCy9e74Wm-53" value="" style="resizable=0;html=1;align=center;verticalAlign=top;labelBackgroundColor=none;" connectable="0" vertex="1" parent="AJvE4rrnE6klCy9e74Wm-52">
          <mxGeometry relative="1" as="geometry" />
        </mxCell>
        <mxCell id="AJvE4rrnE6klCy9e74Wm-54" value="" style="endArrow=block;html=1;rounded=0;align=center;verticalAlign=bottom;endFill=0;labelBackgroundColor=none;endSize=8;entryX=0.5;entryY=1;entryDx=0;entryDy=0;exitX=0.5;exitY=0;exitDx=0;exitDy=0;" edge="1" parent="1" source="AJvE4rrnE6klCy9e74Wm-49" target="AJvE4rrnE6klCy9e74Wm-47">
          <mxGeometry relative="1" as="geometry">
            <mxPoint x="90" y="590" as="sourcePoint" />
            <mxPoint x="190" y="540" as="targetPoint" />
          </mxGeometry>
        </mxCell>
        <mxCell id="AJvE4rrnE6klCy9e74Wm-55" value="" style="resizable=0;html=1;align=center;verticalAlign=top;labelBackgroundColor=none;" connectable="0" vertex="1" parent="AJvE4rrnE6klCy9e74Wm-54">
          <mxGeometry relative="1" as="geometry" />
        </mxCell>
        <mxCell id="AJvE4rrnE6klCy9e74Wm-56" value="" style="endArrow=block;html=1;rounded=0;align=center;verticalAlign=bottom;endFill=0;labelBackgroundColor=none;endSize=8;entryX=0.5;entryY=1;entryDx=0;entryDy=0;exitX=0.5;exitY=0;exitDx=0;exitDy=0;" edge="1" parent="1" source="AJvE4rrnE6klCy9e74Wm-49" target="AJvE4rrnE6klCy9e74Wm-48">
          <mxGeometry relative="1" as="geometry">
            <mxPoint x="100" y="600" as="sourcePoint" />
            <mxPoint x="200" y="550" as="targetPoint" />
          </mxGeometry>
        </mxCell>
        <mxCell id="AJvE4rrnE6klCy9e74Wm-57" value="" style="resizable=0;html=1;align=center;verticalAlign=top;labelBackgroundColor=none;" connectable="0" vertex="1" parent="AJvE4rrnE6klCy9e74Wm-56">
          <mxGeometry relative="1" as="geometry" />
        </mxCell>
        <mxCell id="AJvE4rrnE6klCy9e74Wm-58" value="" style="rounded=0;whiteSpace=wrap;html=1;" vertex="1" parent="1">
          <mxGeometry x="390" y="770" width="120" height="250" as="geometry" />
        </mxCell>
        <mxCell id="AJvE4rrnE6klCy9e74Wm-59" value="" style="rounded=0;whiteSpace=wrap;html=1;" vertex="1" parent="1">
          <mxGeometry x="390" y="770" width="120" height="110" as="geometry" />
        </mxCell>
        <mxCell id="AJvE4rrnE6klCy9e74Wm-60" value="" style="rounded=0;whiteSpace=wrap;html=1;" vertex="1" parent="1">
          <mxGeometry x="390" y="880" width="120" height="110" as="geometry" />
        </mxCell>
        <mxCell id="AJvE4rrnE6klCy9e74Wm-61" value="Employee" style="text;html=1;strokeColor=none;fillColor=none;align=center;verticalAlign=middle;whiteSpace=wrap;rounded=0;" vertex="1" parent="1">
          <mxGeometry x="390" y="880" width="60" height="30" as="geometry" />
        </mxCell>
        <mxCell id="AJvE4rrnE6klCy9e74Wm-62" value="std::string name" style="text;html=1;strokeColor=none;fillColor=none;align=left;verticalAlign=middle;whiteSpace=wrap;rounded=0;" vertex="1" parent="1">
          <mxGeometry x="390" y="910" width="120" height="30" as="geometry" />
        </mxCell>
        <mxCell id="AJvE4rrnE6klCy9e74Wm-63" value="int nr" style="text;html=1;strokeColor=none;fillColor=none;align=left;verticalAlign=middle;whiteSpace=wrap;rounded=0;" vertex="1" parent="1">
          <mxGeometry x="390" y="932" width="60" height="30" as="geometry" />
        </mxCell>
        <mxCell id="AJvE4rrnE6klCy9e74Wm-64" value="std::string institute" style="text;html=1;strokeColor=none;fillColor=none;align=center;verticalAlign=middle;whiteSpace=wrap;rounded=0;" vertex="1" parent="1">
          <mxGeometry x="390" y="956" width="100" height="30" as="geometry" />
        </mxCell>
        <mxCell id="AJvE4rrnE6klCy9e74Wm-65" value="std::string studies" style="text;html=1;strokeColor=none;fillColor=none;align=left;verticalAlign=middle;whiteSpace=wrap;rounded=0;" vertex="1" parent="1">
          <mxGeometry x="390" y="789" width="120" height="30" as="geometry" />
        </mxCell>
        <mxCell id="AJvE4rrnE6klCy9e74Wm-66" value="std::string course" style="text;html=1;strokeColor=none;fillColor=none;align=left;verticalAlign=middle;whiteSpace=wrap;rounded=0;" vertex="1" parent="1">
          <mxGeometry x="390" y="812" width="120" height="30" as="geometry" />
        </mxCell>
        <mxCell id="AJvE4rrnE6klCy9e74Wm-67" value="" style="rounded=0;whiteSpace=wrap;html=1;" vertex="1" parent="1">
          <mxGeometry x="390" y="840" width="120" height="40" as="geometry" />
        </mxCell>
        <mxCell id="AJvE4rrnE6klCy9e74Wm-73" value="std::string area" style="text;html=1;strokeColor=none;fillColor=none;align=left;verticalAlign=middle;whiteSpace=wrap;rounded=0;" vertex="1" parent="1">
          <mxGeometry x="390" y="854" width="120" height="30" as="geometry" />
        </mxCell>
        <mxCell id="AJvE4rrnE6klCy9e74Wm-74" value="double perc" style="text;html=1;strokeColor=none;fillColor=none;align=left;verticalAlign=middle;whiteSpace=wrap;rounded=0;" vertex="1" parent="1">
          <mxGeometry x="390" y="990" width="100" height="30" as="geometry" />
        </mxCell>
        <mxCell id="AJvE4rrnE6klCy9e74Wm-75" value="LecturerResearcher" style="text;html=1;strokeColor=none;fillColor=none;align=center;verticalAlign=middle;whiteSpace=wrap;rounded=0;" vertex="1" parent="1">
          <mxGeometry x="414" y="1020" width="60" height="30" as="geometry" />
        </mxCell>
        <mxCell id="AJvE4rrnE6klCy9e74Wm-76" value="Lecturer" style="text;html=1;strokeColor=none;fillColor=none;align=center;verticalAlign=middle;whiteSpace=wrap;rounded=0;" vertex="1" parent="1">
          <mxGeometry x="510" y="789" width="60" height="30" as="geometry" />
        </mxCell>
        <mxCell id="AJvE4rrnE6klCy9e74Wm-77" value="Researcher" style="text;html=1;strokeColor=none;fillColor=none;align=center;verticalAlign=middle;whiteSpace=wrap;rounded=0;" vertex="1" parent="1">
          <mxGeometry x="549" y="853" width="60" height="30" as="geometry" />
        </mxCell>
        <mxCell id="AJvE4rrnE6klCy9e74Wm-78" value="Employee*" style="text;html=1;strokeColor=none;fillColor=none;align=left;verticalAlign=middle;whiteSpace=wrap;rounded=0;" vertex="1" parent="1">
          <mxGeometry x="390" y="835" width="120" height="30" as="geometry" />
        </mxCell>
        <mxCell id="AJvE4rrnE6klCy9e74Wm-79" value="" style="endArrow=classic;html=1;rounded=0;exitX=1;exitY=0.5;exitDx=0;exitDy=0;entryX=1;entryY=1;entryDx=0;entryDy=0;" edge="1" parent="1" source="AJvE4rrnE6klCy9e74Wm-78" target="AJvE4rrnE6klCy9e74Wm-73">
          <mxGeometry width="50" height="50" relative="1" as="geometry">
            <mxPoint x="590" y="970" as="sourcePoint" />
            <mxPoint x="640" y="920" as="targetPoint" />
            <Array as="points">
              <mxPoint x="540" y="870" />
            </Array>
          </mxGeometry>
        </mxCell>
        <mxCell id="AJvE4rrnE6klCy9e74Wm-80" value="Employee*" style="text;html=1;strokeColor=none;fillColor=none;align=left;verticalAlign=middle;whiteSpace=wrap;rounded=0;" vertex="1" parent="1">
          <mxGeometry x="394" y="772" width="120" height="30" as="geometry" />
        </mxCell>
        <mxCell id="AJvE4rrnE6klCy9e74Wm-81" value="" style="endArrow=classic;html=1;rounded=0;exitX=0;exitY=0;exitDx=0;exitDy=0;entryX=0;entryY=0;entryDx=0;entryDy=0;" edge="1" parent="1" source="AJvE4rrnE6klCy9e74Wm-65" target="AJvE4rrnE6klCy9e74Wm-61">
          <mxGeometry width="50" height="50" relative="1" as="geometry">
            <mxPoint x="520" y="860" as="sourcePoint" />
            <mxPoint x="700" y="807" as="targetPoint" />
            <Array as="points">
              <mxPoint x="330" y="830" />
            </Array>
          </mxGeometry>
        </mxCell>
        <mxCell id="AJvE4rrnE6klCy9e74Wm-82" value="" style="endArrow=classic;html=1;rounded=0;" edge="1" parent="1">
          <mxGeometry width="50" height="50" relative="1" as="geometry">
            <mxPoint x="330" y="769.4300000000001" as="sourcePoint" />
            <mxPoint x="390" y="769.4300000000001" as="targetPoint" />
          </mxGeometry>
        </mxCell>
      </root>
    </mxGraphModel>
  </diagram>
</mxfile>
